<svg width="42" height="50" viewBox="0 0 42 50" fill="none" xmlns="http://www.w3.org/2000/svg">
<path d="M2 21.9662C2 20.843 2.91056 19.9324 4.03378 19.9324H10.8285L11.7578 20.027H30.8551V21.3041L11.5254 6.92568L13.0588 5.64865V24H9.71328V5.1353C9.71328 3.95601 10.6693 3 11.8486 3V3C12.3313 3 12.7998 3.16358 13.1777 3.46407L39 24H35.4552H4.03378C2.91056 24 2 23.0894 2 21.9662V21.9662Z" fill="white"/>
<path d="M39 28.0338C39 29.157 38.0894 30.0676 36.9662 30.0676H30.1715L29.2422 29.973H10.1449V28.6959L29.4746 43.0743L27.9412 44.3514V26H31.2867V44.8647C31.2867 46.044 30.3307 47 29.1514 47V47C28.6687 47 28.2002 46.8364 27.8223 46.5359L2 26H5.54482H36.9662C38.0894 26 39 26.9106 39 28.0338V28.0338Z" fill="white"/>
</svg>
